<mxfile host="app.diagrams.net" modified="2021-01-13T11:03:39.265Z" agent="5.0 (Macintosh; Intel Mac OS X 11_0_1) AppleWebKit/537.36 (KHTML, like Gecko) Chrome/87.0.4280.88 Safari/537.36" etag="eJ3Srbq0AkNLEneIg58c" version="14.1.9" type="github">
  <diagram id="gH5ciEaB7895yhG9p73K" name="Page-1">
    <mxGraphModel dx="1722" dy="988" grid="1" gridSize="10" guides="1" tooltips="1" connect="1" arrows="1" fold="1" page="1" pageScale="1" pageWidth="850" pageHeight="1100" math="0" shadow="0">
      <root>
        <mxCell id="0" />
        <mxCell id="1" parent="0" />
        <mxCell id="0Xgx3T9gDCSC7o2Kawo7-2" value="url" style="rounded=0;whiteSpace=wrap;html=1;align=left;strokeWidth=2;fontStyle=0" vertex="1" parent="1">
          <mxGeometry x="240" y="160" width="120" height="20" as="geometry" />
        </mxCell>
        <mxCell id="0Xgx3T9gDCSC7o2Kawo7-17" value="" style="edgeStyle=orthogonalEdgeStyle;curved=1;rounded=0;orthogonalLoop=1;jettySize=auto;html=1;strokeWidth=2;fontStyle=0" edge="1" parent="1" source="0Xgx3T9gDCSC7o2Kawo7-3" target="0Xgx3T9gDCSC7o2Kawo7-16">
          <mxGeometry relative="1" as="geometry" />
        </mxCell>
        <mxCell id="0Xgx3T9gDCSC7o2Kawo7-37" style="edgeStyle=orthogonalEdgeStyle;curved=1;rounded=0;orthogonalLoop=1;jettySize=auto;html=1;exitX=1;exitY=0.5;exitDx=0;exitDy=0;entryX=0;entryY=0.5;entryDx=0;entryDy=0;strokeWidth=2;" edge="1" parent="1" source="0Xgx3T9gDCSC7o2Kawo7-3" target="0Xgx3T9gDCSC7o2Kawo7-36">
          <mxGeometry relative="1" as="geometry" />
        </mxCell>
        <mxCell id="0Xgx3T9gDCSC7o2Kawo7-49" style="edgeStyle=orthogonalEdgeStyle;curved=1;rounded=0;orthogonalLoop=1;jettySize=auto;html=1;exitX=1;exitY=0.5;exitDx=0;exitDy=0;entryX=0;entryY=0.5;entryDx=0;entryDy=0;strokeWidth=2;" edge="1" parent="1" source="0Xgx3T9gDCSC7o2Kawo7-3" target="0Xgx3T9gDCSC7o2Kawo7-48">
          <mxGeometry relative="1" as="geometry" />
        </mxCell>
        <mxCell id="0Xgx3T9gDCSC7o2Kawo7-3" value="text" style="rounded=0;whiteSpace=wrap;html=1;align=left;strokeWidth=2;fontStyle=0" vertex="1" parent="1">
          <mxGeometry x="240" y="100" width="120" height="20" as="geometry" />
        </mxCell>
        <mxCell id="0Xgx3T9gDCSC7o2Kawo7-5" value="R-click" style="rounded=0;whiteSpace=wrap;html=1;align=left;strokeWidth=2;fontStyle=0" vertex="1" parent="1">
          <mxGeometry x="40" y="80" width="120" height="20" as="geometry" />
        </mxCell>
        <mxCell id="0Xgx3T9gDCSC7o2Kawo7-6" value="files" style="rounded=0;whiteSpace=wrap;html=1;align=left;strokeWidth=2;fontStyle=0" vertex="1" parent="1">
          <mxGeometry x="240" y="260" width="120" height="20" as="geometry" />
        </mxCell>
        <mxCell id="0Xgx3T9gDCSC7o2Kawo7-9" value="Browser - Chrome" style="text;html=1;align=left;verticalAlign=middle;resizable=0;points=[];autosize=1;fontStyle=0;strokeWidth=2;" vertex="1" parent="1">
          <mxGeometry x="40" y="60" width="110" height="20" as="geometry" />
        </mxCell>
        <mxCell id="0Xgx3T9gDCSC7o2Kawo7-15" style="edgeStyle=orthogonalEdgeStyle;curved=1;rounded=0;orthogonalLoop=1;jettySize=auto;html=1;exitX=1;exitY=0.5;exitDx=0;exitDy=0;strokeWidth=2;fontStyle=0" edge="1" parent="1" source="0Xgx3T9gDCSC7o2Kawo7-10" target="0Xgx3T9gDCSC7o2Kawo7-3">
          <mxGeometry relative="1" as="geometry" />
        </mxCell>
        <mxCell id="0Xgx3T9gDCSC7o2Kawo7-10" value="Text -&amp;gt; Share" style="rounded=0;whiteSpace=wrap;html=1;align=left;strokeWidth=2;fontStyle=0" vertex="1" parent="1">
          <mxGeometry x="50" y="100" width="120" height="20" as="geometry" />
        </mxCell>
        <mxCell id="0Xgx3T9gDCSC7o2Kawo7-11" value="Button" style="rounded=0;whiteSpace=wrap;html=1;align=left;strokeWidth=2;fontStyle=0" vertex="1" parent="1">
          <mxGeometry x="40" y="140" width="120" height="20" as="geometry" />
        </mxCell>
        <mxCell id="0Xgx3T9gDCSC7o2Kawo7-14" style="edgeStyle=orthogonalEdgeStyle;rounded=0;orthogonalLoop=1;jettySize=auto;html=1;exitX=1;exitY=0.5;exitDx=0;exitDy=0;entryX=0;entryY=0.5;entryDx=0;entryDy=0;curved=1;strokeWidth=2;fontStyle=0" edge="1" parent="1" source="0Xgx3T9gDCSC7o2Kawo7-12" target="0Xgx3T9gDCSC7o2Kawo7-2">
          <mxGeometry relative="1" as="geometry" />
        </mxCell>
        <mxCell id="0Xgx3T9gDCSC7o2Kawo7-12" value="Share URL In BG" style="rounded=0;whiteSpace=wrap;html=1;align=left;strokeWidth=2;fontStyle=0" vertex="1" parent="1">
          <mxGeometry x="50" y="160" width="120" height="20" as="geometry" />
        </mxCell>
        <mxCell id="0Xgx3T9gDCSC7o2Kawo7-16" value="Tag: Book" style="rounded=0;whiteSpace=wrap;html=1;align=left;strokeWidth=2;fontStyle=0" vertex="1" parent="1">
          <mxGeometry x="440" y="100" width="120" height="20" as="geometry" />
        </mxCell>
        <mxCell id="0Xgx3T9gDCSC7o2Kawo7-19" value="Tag-G: Res Type" style="rounded=0;whiteSpace=wrap;html=1;align=left;strokeWidth=2;fontStyle=0" vertex="1" parent="1">
          <mxGeometry x="450" y="120" width="120" height="20" as="geometry" />
        </mxCell>
        <mxCell id="0Xgx3T9gDCSC7o2Kawo7-21" value="PC" style="text;html=1;align=left;verticalAlign=middle;resizable=0;points=[];autosize=1;fontStyle=0;strokeWidth=2;" vertex="1" parent="1">
          <mxGeometry x="40" y="220" width="30" height="20" as="geometry" />
        </mxCell>
        <mxCell id="0Xgx3T9gDCSC7o2Kawo7-22" value="R-click" style="rounded=0;whiteSpace=wrap;html=1;align=left;strokeWidth=2;fontStyle=0" vertex="1" parent="1">
          <mxGeometry x="40" y="240" width="120" height="20" as="geometry" />
        </mxCell>
        <mxCell id="0Xgx3T9gDCSC7o2Kawo7-25" style="edgeStyle=orthogonalEdgeStyle;curved=1;rounded=0;orthogonalLoop=1;jettySize=auto;html=1;exitX=1;exitY=0.5;exitDx=0;exitDy=0;entryX=0;entryY=0.5;entryDx=0;entryDy=0;strokeWidth=2;fontStyle=0" edge="1" parent="1" source="0Xgx3T9gDCSC7o2Kawo7-23" target="0Xgx3T9gDCSC7o2Kawo7-6">
          <mxGeometry relative="1" as="geometry" />
        </mxCell>
        <mxCell id="0Xgx3T9gDCSC7o2Kawo7-23" value="Files -&amp;gt; Share" style="rounded=0;whiteSpace=wrap;html=1;align=left;strokeWidth=2;fontStyle=0" vertex="1" parent="1">
          <mxGeometry x="50" y="260" width="120" height="20" as="geometry" />
        </mxCell>
        <mxCell id="0Xgx3T9gDCSC7o2Kawo7-26" value="Share-Intent" style="rounded=0;whiteSpace=wrap;html=1;align=left;strokeWidth=2;fontStyle=0" vertex="1" parent="1">
          <mxGeometry x="40" y="340" width="120" height="20" as="geometry" />
        </mxCell>
        <mxCell id="0Xgx3T9gDCSC7o2Kawo7-27" value="Mobile" style="text;html=1;align=left;verticalAlign=middle;resizable=0;points=[];autosize=1;fontStyle=0;strokeWidth=2;" vertex="1" parent="1">
          <mxGeometry x="40" y="320" width="50" height="20" as="geometry" />
        </mxCell>
        <mxCell id="0Xgx3T9gDCSC7o2Kawo7-28" value="Url" style="rounded=0;whiteSpace=wrap;html=1;align=left;strokeWidth=2;fontStyle=0" vertex="1" parent="1">
          <mxGeometry x="50" y="360" width="120" height="20" as="geometry" />
        </mxCell>
        <mxCell id="0Xgx3T9gDCSC7o2Kawo7-29" value="Files" style="rounded=0;whiteSpace=wrap;html=1;align=left;strokeWidth=2;fontStyle=0" vertex="1" parent="1">
          <mxGeometry x="50" y="380" width="120" height="20" as="geometry" />
        </mxCell>
        <mxCell id="0Xgx3T9gDCSC7o2Kawo7-30" value="App" style="rounded=0;whiteSpace=wrap;html=1;align=left;strokeWidth=2;fontStyle=0" vertex="1" parent="1">
          <mxGeometry x="40" y="420" width="120" height="20" as="geometry" />
        </mxCell>
        <mxCell id="0Xgx3T9gDCSC7o2Kawo7-31" value="Clipboard - Detect" style="rounded=0;whiteSpace=wrap;html=1;align=left;strokeWidth=2;fontStyle=0" vertex="1" parent="1">
          <mxGeometry x="50" y="440" width="120" height="20" as="geometry" />
        </mxCell>
        <mxCell id="0Xgx3T9gDCSC7o2Kawo7-33" value="Text-Input" style="rounded=0;whiteSpace=wrap;html=1;align=left;strokeWidth=2;fontStyle=0" vertex="1" parent="1">
          <mxGeometry x="50" y="460" width="120" height="20" as="geometry" />
        </mxCell>
        <mxCell id="0Xgx3T9gDCSC7o2Kawo7-36" value="Link" style="rounded=0;whiteSpace=wrap;html=1;align=left;strokeWidth=2;fontStyle=0" vertex="1" parent="1">
          <mxGeometry x="440" y="160" width="120" height="20" as="geometry" />
        </mxCell>
        <mxCell id="0Xgx3T9gDCSC7o2Kawo7-39" value="M-M Free" style="rounded=0;whiteSpace=wrap;html=1;align=left;strokeWidth=2;fontStyle=0" vertex="1" parent="1">
          <mxGeometry x="450" y="180" width="120" height="20" as="geometry" />
        </mxCell>
        <mxCell id="0Xgx3T9gDCSC7o2Kawo7-40" value="M-M DAG" style="rounded=0;whiteSpace=wrap;html=1;align=left;strokeWidth=2;fontStyle=0" vertex="1" parent="1">
          <mxGeometry x="450" y="200" width="120" height="20" as="geometry" />
        </mxCell>
        <mxCell id="0Xgx3T9gDCSC7o2Kawo7-75" value="" style="edgeStyle=orthogonalEdgeStyle;curved=1;rounded=0;orthogonalLoop=1;jettySize=auto;html=1;strokeWidth=2;" edge="1" parent="1" source="0Xgx3T9gDCSC7o2Kawo7-41" target="0Xgx3T9gDCSC7o2Kawo7-74">
          <mxGeometry relative="1" as="geometry" />
        </mxCell>
        <mxCell id="0Xgx3T9gDCSC7o2Kawo7-41" value="1-M Tree" style="rounded=0;whiteSpace=wrap;html=1;align=left;strokeWidth=2;fontStyle=0" vertex="1" parent="1">
          <mxGeometry x="450" y="220" width="120" height="20" as="geometry" />
        </mxCell>
        <mxCell id="0Xgx3T9gDCSC7o2Kawo7-42" value="1-1 List" style="rounded=0;whiteSpace=wrap;html=1;align=left;strokeWidth=2;fontStyle=0" vertex="1" parent="1">
          <mxGeometry x="450" y="240" width="120" height="20" as="geometry" />
        </mxCell>
        <mxCell id="0Xgx3T9gDCSC7o2Kawo7-48" value="Full-Test Search" style="rounded=0;whiteSpace=wrap;html=1;align=left;strokeWidth=2;fontStyle=0" vertex="1" parent="1">
          <mxGeometry x="440" y="280" width="120" height="20" as="geometry" />
        </mxCell>
        <mxCell id="0Xgx3T9gDCSC7o2Kawo7-50" value="binary" style="rounded=0;whiteSpace=wrap;html=1;align=left;strokeWidth=2;fontStyle=0" vertex="1" parent="1">
          <mxGeometry x="250" y="280" width="120" height="20" as="geometry" />
        </mxCell>
        <mxCell id="0Xgx3T9gDCSC7o2Kawo7-51" value="text" style="rounded=0;whiteSpace=wrap;html=1;align=left;strokeWidth=2;fontStyle=0" vertex="1" parent="1">
          <mxGeometry x="250" y="300" width="120" height="20" as="geometry" />
        </mxCell>
        <mxCell id="0Xgx3T9gDCSC7o2Kawo7-52" value="audio" style="rounded=0;whiteSpace=wrap;html=1;align=left;strokeWidth=2;fontStyle=0" vertex="1" parent="1">
          <mxGeometry x="250" y="320" width="120" height="20" as="geometry" />
        </mxCell>
        <mxCell id="0Xgx3T9gDCSC7o2Kawo7-53" value="image" style="rounded=0;whiteSpace=wrap;html=1;align=left;strokeWidth=2;fontStyle=0" vertex="1" parent="1">
          <mxGeometry x="250" y="340" width="120" height="20" as="geometry" />
        </mxCell>
        <mxCell id="0Xgx3T9gDCSC7o2Kawo7-54" value="video" style="rounded=0;whiteSpace=wrap;html=1;align=left;strokeWidth=2;fontStyle=0" vertex="1" parent="1">
          <mxGeometry x="250" y="360" width="120" height="20" as="geometry" />
        </mxCell>
        <mxCell id="0Xgx3T9gDCSC7o2Kawo7-55" value="cachable?" style="rounded=0;whiteSpace=wrap;html=1;align=left;strokeWidth=2;fontStyle=0" vertex="1" parent="1">
          <mxGeometry x="250" y="180" width="120" height="20" as="geometry" />
        </mxCell>
        <mxCell id="0Xgx3T9gDCSC7o2Kawo7-58" style="edgeStyle=orthogonalEdgeStyle;curved=1;rounded=0;orthogonalLoop=1;jettySize=auto;html=1;exitX=1;exitY=0.5;exitDx=0;exitDy=0;strokeWidth=2;" edge="1" parent="1" source="0Xgx3T9gDCSC7o2Kawo7-56" target="0Xgx3T9gDCSC7o2Kawo7-57">
          <mxGeometry relative="1" as="geometry" />
        </mxCell>
        <mxCell id="0Xgx3T9gDCSC7o2Kawo7-56" value="Text - Chrome-Share" style="rounded=0;whiteSpace=wrap;html=1;align=left;strokeWidth=2;fontStyle=0" vertex="1" parent="1">
          <mxGeometry x="40" y="580" width="120" height="20" as="geometry" />
        </mxCell>
        <mxCell id="0Xgx3T9gDCSC7o2Kawo7-61" value="" style="edgeStyle=orthogonalEdgeStyle;curved=1;rounded=0;orthogonalLoop=1;jettySize=auto;html=1;strokeWidth=2;" edge="1" parent="1" source="0Xgx3T9gDCSC7o2Kawo7-57" target="0Xgx3T9gDCSC7o2Kawo7-60">
          <mxGeometry relative="1" as="geometry" />
        </mxCell>
        <mxCell id="0Xgx3T9gDCSC7o2Kawo7-68" style="edgeStyle=orthogonalEdgeStyle;curved=1;rounded=0;orthogonalLoop=1;jettySize=auto;html=1;exitX=1;exitY=0.5;exitDx=0;exitDy=0;entryX=0;entryY=0.5;entryDx=0;entryDy=0;strokeWidth=2;" edge="1" parent="1" source="0Xgx3T9gDCSC7o2Kawo7-57" target="0Xgx3T9gDCSC7o2Kawo7-66">
          <mxGeometry relative="1" as="geometry" />
        </mxCell>
        <mxCell id="0Xgx3T9gDCSC7o2Kawo7-57" value="Inbox - Text" style="rounded=0;whiteSpace=wrap;html=1;align=left;strokeWidth=2;fontStyle=0" vertex="1" parent="1">
          <mxGeometry x="240" y="580" width="120" height="20" as="geometry" />
        </mxCell>
        <mxCell id="0Xgx3T9gDCSC7o2Kawo7-96" style="edgeStyle=orthogonalEdgeStyle;curved=1;rounded=0;orthogonalLoop=1;jettySize=auto;html=1;exitX=1;exitY=0.5;exitDx=0;exitDy=0;entryX=0;entryY=0.5;entryDx=0;entryDy=0;strokeWidth=2;" edge="1" parent="1" source="0Xgx3T9gDCSC7o2Kawo7-60" target="0Xgx3T9gDCSC7o2Kawo7-90">
          <mxGeometry relative="1" as="geometry" />
        </mxCell>
        <mxCell id="0Xgx3T9gDCSC7o2Kawo7-60" value="Action - On Track" style="rounded=0;whiteSpace=wrap;html=1;align=left;strokeWidth=2;fontStyle=0" vertex="1" parent="1">
          <mxGeometry x="440" y="580" width="120" height="20" as="geometry" />
        </mxCell>
        <mxCell id="0Xgx3T9gDCSC7o2Kawo7-62" value="Tag" style="rounded=0;whiteSpace=wrap;html=1;align=left;strokeWidth=2;fontStyle=0" vertex="1" parent="1">
          <mxGeometry x="250" y="600" width="120" height="20" as="geometry" />
        </mxCell>
        <mxCell id="0Xgx3T9gDCSC7o2Kawo7-63" value="Link" style="rounded=0;whiteSpace=wrap;html=1;align=left;strokeWidth=2;fontStyle=0" vertex="1" parent="1">
          <mxGeometry x="250" y="620" width="120" height="20" as="geometry" />
        </mxCell>
        <mxCell id="0Xgx3T9gDCSC7o2Kawo7-64" value="Attatchments" style="rounded=0;whiteSpace=wrap;html=1;align=left;strokeWidth=2;fontStyle=0" vertex="1" parent="1">
          <mxGeometry x="450" y="600" width="120" height="20" as="geometry" />
        </mxCell>
        <mxCell id="0Xgx3T9gDCSC7o2Kawo7-65" value="Cron" style="rounded=0;whiteSpace=wrap;html=1;align=left;strokeWidth=2;fontStyle=0" vertex="1" parent="1">
          <mxGeometry x="450" y="620" width="120" height="20" as="geometry" />
        </mxCell>
        <mxCell id="0Xgx3T9gDCSC7o2Kawo7-97" style="edgeStyle=orthogonalEdgeStyle;curved=1;rounded=0;orthogonalLoop=1;jettySize=auto;html=1;exitX=1;exitY=0.5;exitDx=0;exitDy=0;strokeWidth=2;" edge="1" parent="1" source="0Xgx3T9gDCSC7o2Kawo7-66" target="0Xgx3T9gDCSC7o2Kawo7-90">
          <mxGeometry relative="1" as="geometry" />
        </mxCell>
        <mxCell id="0Xgx3T9gDCSC7o2Kawo7-66" value="Workflow" style="rounded=0;whiteSpace=wrap;html=1;align=left;strokeWidth=2;fontStyle=0" vertex="1" parent="1">
          <mxGeometry x="440" y="700" width="120" height="20" as="geometry" />
        </mxCell>
        <mxCell id="0Xgx3T9gDCSC7o2Kawo7-72" value="" style="edgeStyle=orthogonalEdgeStyle;curved=1;rounded=0;orthogonalLoop=1;jettySize=auto;html=1;strokeWidth=2;entryX=0;entryY=0.5;entryDx=0;entryDy=0;exitX=1;exitY=0.5;exitDx=0;exitDy=0;" edge="1" parent="1" source="0Xgx3T9gDCSC7o2Kawo7-66" target="0Xgx3T9gDCSC7o2Kawo7-71">
          <mxGeometry relative="1" as="geometry" />
        </mxCell>
        <mxCell id="0Xgx3T9gDCSC7o2Kawo7-69" value="Keyword Pattern" style="rounded=0;whiteSpace=wrap;html=1;align=left;strokeWidth=2;fontStyle=0" vertex="1" parent="1">
          <mxGeometry x="450" y="720" width="120" height="20" as="geometry" />
        </mxCell>
        <mxCell id="0Xgx3T9gDCSC7o2Kawo7-70" value="File Type" style="rounded=0;whiteSpace=wrap;html=1;align=left;strokeWidth=2;fontStyle=0" vertex="1" parent="1">
          <mxGeometry x="450" y="760" width="120" height="20" as="geometry" />
        </mxCell>
        <mxCell id="0Xgx3T9gDCSC7o2Kawo7-71" value="Add Tag" style="rounded=0;whiteSpace=wrap;html=1;align=left;strokeWidth=2;fontStyle=0" vertex="1" parent="1">
          <mxGeometry x="640" y="580" width="120" height="20" as="geometry" />
        </mxCell>
        <mxCell id="0Xgx3T9gDCSC7o2Kawo7-74" value="Folder Node" style="rounded=0;whiteSpace=wrap;html=1;align=left;strokeWidth=2;fontStyle=0" vertex="1" parent="1">
          <mxGeometry x="650" y="220" width="120" height="20" as="geometry" />
        </mxCell>
        <mxCell id="0Xgx3T9gDCSC7o2Kawo7-76" value="XMIND" style="rounded=0;whiteSpace=wrap;html=1;align=left;strokeWidth=2;fontStyle=0" vertex="1" parent="1">
          <mxGeometry x="650" y="240" width="120" height="20" as="geometry" />
        </mxCell>
        <mxCell id="0Xgx3T9gDCSC7o2Kawo7-77" value="Add Link" style="rounded=0;whiteSpace=wrap;html=1;align=left;strokeWidth=2;fontStyle=0" vertex="1" parent="1">
          <mxGeometry x="640" y="600" width="120" height="20" as="geometry" />
        </mxCell>
        <mxCell id="0Xgx3T9gDCSC7o2Kawo7-78" value="Command" style="rounded=0;whiteSpace=wrap;html=1;align=left;strokeWidth=2;fontStyle=0" vertex="1" parent="1">
          <mxGeometry x="460" y="740" width="120" height="20" as="geometry" />
        </mxCell>
        <mxCell id="0Xgx3T9gDCSC7o2Kawo7-82" value="Publish" style="rounded=0;whiteSpace=wrap;html=1;align=left;strokeWidth=2;fontStyle=0" vertex="1" parent="1">
          <mxGeometry x="450" y="780" width="120" height="20" as="geometry" />
        </mxCell>
        <mxCell id="0Xgx3T9gDCSC7o2Kawo7-83" value="Authorize" style="text;html=1;align=center;verticalAlign=middle;resizable=0;points=[];autosize=1;" vertex="1" parent="1">
          <mxGeometry x="400" y="650" width="70" height="20" as="geometry" />
        </mxCell>
        <mxCell id="0Xgx3T9gDCSC7o2Kawo7-84" value="Authorize" style="text;html=1;align=center;verticalAlign=middle;resizable=0;points=[];autosize=1;" vertex="1" parent="1">
          <mxGeometry x="360" y="570" width="70" height="20" as="geometry" />
        </mxCell>
        <mxCell id="0Xgx3T9gDCSC7o2Kawo7-90" value="Outbox" style="rounded=0;whiteSpace=wrap;html=1;align=left;strokeWidth=2;fontStyle=0" vertex="1" parent="1">
          <mxGeometry x="640" y="700" width="120" height="20" as="geometry" />
        </mxCell>
        <mxCell id="0Xgx3T9gDCSC7o2Kawo7-91" value="Blog" style="rounded=0;whiteSpace=wrap;html=1;align=left;strokeWidth=2;fontStyle=0" vertex="1" parent="1">
          <mxGeometry x="650" y="720" width="120" height="20" as="geometry" />
        </mxCell>
        <mxCell id="0Xgx3T9gDCSC7o2Kawo7-92" value="Microblog" style="rounded=0;whiteSpace=wrap;html=1;align=left;strokeWidth=2;fontStyle=0" vertex="1" parent="1">
          <mxGeometry x="650" y="740" width="120" height="20" as="geometry" />
        </mxCell>
        <mxCell id="0Xgx3T9gDCSC7o2Kawo7-93" value="Chat" style="rounded=0;whiteSpace=wrap;html=1;align=left;strokeWidth=2;fontStyle=0" vertex="1" parent="1">
          <mxGeometry x="650" y="760" width="120" height="20" as="geometry" />
        </mxCell>
        <mxCell id="0Xgx3T9gDCSC7o2Kawo7-94" value="Book" style="rounded=0;whiteSpace=wrap;html=1;align=left;strokeWidth=2;fontStyle=0" vertex="1" parent="1">
          <mxGeometry x="650" y="780" width="120" height="20" as="geometry" />
        </mxCell>
        <mxCell id="0Xgx3T9gDCSC7o2Kawo7-95" value="Doc" style="rounded=0;whiteSpace=wrap;html=1;align=left;strokeWidth=2;fontStyle=0" vertex="1" parent="1">
          <mxGeometry x="650" y="800" width="120" height="20" as="geometry" />
        </mxCell>
        <mxCell id="0Xgx3T9gDCSC7o2Kawo7-99" value="Any Inbox&lt;br&gt;Convenient" style="text;html=1;align=center;verticalAlign=middle;resizable=0;points=[];autosize=1;" vertex="1" parent="1">
          <mxGeometry x="60" y="530" width="80" height="30" as="geometry" />
        </mxCell>
        <mxCell id="0Xgx3T9gDCSC7o2Kawo7-101" value="Reorg&lt;br&gt;Flexible" style="text;html=1;align=center;verticalAlign=middle;resizable=0;points=[];autosize=1;" vertex="1" parent="1">
          <mxGeometry x="270" y="530" width="60" height="30" as="geometry" />
        </mxCell>
        <mxCell id="0Xgx3T9gDCSC7o2Kawo7-102" value="FTS" style="rounded=0;whiteSpace=wrap;html=1;align=left;strokeWidth=2;fontStyle=0" vertex="1" parent="1">
          <mxGeometry x="250" y="640" width="120" height="20" as="geometry" />
        </mxCell>
        <mxCell id="0Xgx3T9gDCSC7o2Kawo7-103" value="Todo&lt;br&gt;Humanity" style="text;html=1;align=center;verticalAlign=middle;resizable=0;points=[];autosize=1;" vertex="1" parent="1">
          <mxGeometry x="460" y="530" width="70" height="30" as="geometry" />
        </mxCell>
        <mxCell id="0Xgx3T9gDCSC7o2Kawo7-104" value="Automate&lt;br&gt;Easy-To-Use" style="text;html=1;align=center;verticalAlign=middle;resizable=0;points=[];autosize=1;" vertex="1" parent="1">
          <mxGeometry x="455" y="665" width="80" height="30" as="geometry" />
        </mxCell>
        <mxCell id="0Xgx3T9gDCSC7o2Kawo7-105" value="Share&lt;br&gt;Incentive" style="text;html=1;align=center;verticalAlign=middle;resizable=0;points=[];autosize=1;" vertex="1" parent="1">
          <mxGeometry x="655" y="665" width="60" height="30" as="geometry" />
        </mxCell>
        <mxCell id="0Xgx3T9gDCSC7o2Kawo7-106" value="Cooperate&lt;br&gt;- Marketplace&lt;br&gt;- Online-Edit&lt;br&gt;- Shared-Data" style="text;html=1;align=left;verticalAlign=middle;resizable=0;points=[];autosize=1;" vertex="1" parent="1">
          <mxGeometry x="65" y="640" width="90" height="60" as="geometry" />
        </mxCell>
      </root>
    </mxGraphModel>
  </diagram>
</mxfile>
